<svg width="120" height="120" viewBox="0 0 48 48" fill="none" xmlns="http://www.w3.org/2000/svg" role="img" aria-label="SafeBank AI">
  <rect width="48" height="48" rx="12" fill="#0B1020"/>
  <path d="M24 8L34 13V23C34 30.5 29.5 36.5 24 38C18.5 36.5 14 30.5 14 23V13L24 8Z" fill="#4F8CFF"/>
  <path d="M24 16L28 18.5V24C28 27.2 26.2 29.8 24 30.5C21.8 29.8 20 27.2 20 24V18.5L24 16Z" fill="#0B1020" fill-opacity="0.35"/>
  <circle cx="24" cy="22" r="2" fill="#18C29C"/>
  <path d="M20 24H22M26 24H28M24 22V26" stroke="#18C29C" stroke-width="1.5" stroke-linecap="round"/>
  <path d="M18 26H30" stroke="#4F8CFF" stroke-width="1.2" stroke-linecap="round" opacity="0.6"/>
</svg>
